# xmcd CD database file
#
# Track frame offsets:
#	182
#	22080
#	38275
#	55075
#	66735
#	88935
#	103437
#	121715
#	140977
#	156160
#	173157
#	187112
#	199510
#	215315
#
# Disc length: 3030 seconds
#
# Revision: 0
# Processed by: cddbd v1.4PL0 Copyright (c) Steve Scherf et al.
# Submitted via: CDex 1.51
#
DISCID=d00bd40e
DTITLE=The Cheap Seats - Call it what you will
DYEAR=1997
DGENRE=Country
TTITLE0=Something in the Water
TTITLE1=Its Just Love
TTITLE2=Sometimes They Do
TTITLE3=Drop Me Gently
TTITLE4=I'll Get Me Over You
TTITLE5=From Where I Stand
TTITLE6=When You Say Nothing At All
TTITLE7=Can't stop My Heart
TTITLE8=Water into Wine
TTITLE9=She Wears the Crown
TTITLE10=If I Lose You ( I Lose Me)
TTITLE11=Broken Heart Attack
TTITLE12=After the Rain
TTITLE13=Rambling Man
EXTD=YEAR: 1997
EXTT0=
EXTT1=
EXTT2=
EXTT3=
EXTT4=
EXTT5=
EXTT6=
EXTT7=
EXTT8=
EXTT9=
EXTT10=
EXTT11=
EXTT12=
EXTT13=
PLAYORDER=
